<svg width="24" height="24" viewBox="0 0 24 24" fill="none" xmlns="http://www.w3.org/2000/svg">
<path d="M12 5.50047L11.46 6.02047C11.53 6.09306 11.6138 6.1508 11.7066 6.19023C11.7994 6.22967 11.8992 6.24999 12 6.24999C12.1008 6.24999 12.2006 6.22967 12.2934 6.19023C12.3862 6.1508 12.47 6.09306 12.54 6.02047L12 5.50047ZM9.426 18.3225C7.91 17.1275 6.253 15.9605 4.938 14.4805C3.65 13.0285 2.75 11.3345 2.75 9.13747H1.25C1.25 11.8035 2.36 13.8375 3.817 15.4765C5.247 17.0865 7.071 18.3765 8.497 19.5005L9.427 18.3225H9.426ZM2.75 9.13747C2.75 6.98747 3.965 5.18347 5.624 4.42447C7.236 3.68747 9.402 3.88247 11.46 6.02047L12.54 4.98147C10.1 2.44447 7.264 2.02547 5 3.06047C2.786 4.07347 1.25 6.42547 1.25 9.13747H2.75ZM8.497 19.5005C9.01 19.9045 9.56 20.3345 10.117 20.6605C10.674 20.9855 11.31 21.2505 12 21.2505V19.7505C11.69 19.7505 11.326 19.6305 10.874 19.3655C10.421 19.1015 9.952 18.7375 9.426 18.3225L8.497 19.5005ZM15.503 19.5005C16.929 18.3755 18.753 17.0875 20.183 15.4765C21.64 13.8365 22.75 11.8035 22.75 9.13747H21.25C21.25 11.3345 20.35 13.0285 19.062 14.4805C17.747 15.9605 16.09 17.1275 14.574 18.3225L15.503 19.5005ZM22.75 9.13747C22.75 6.42547 21.215 4.07347 19 3.06047C16.736 2.02547 13.902 2.44447 11.46 4.98047L12.54 6.02047C14.598 3.88347 16.764 3.68747 18.376 4.42447C20.035 5.18347 21.25 6.98647 21.25 9.13747H22.75ZM14.574 18.3225C14.048 18.7375 13.579 19.1015 13.126 19.3655C12.674 19.6295 12.31 19.7505 12 19.7505V21.2505C12.69 21.2505 13.326 20.9855 13.883 20.6605C14.441 20.3345 14.99 19.9045 15.503 19.5005L14.574 18.3225Z" fill="#918299"/>
<path d="M11.7066 6.19023C11.6138 6.1508 11.53 6.09306 11.46 6.02047C9.402 3.88247 7.236 3.68747 5.624 4.42447C3.965 5.18347 2.75 6.98747 2.75 9.13747C2.75 11.3345 3.65 13.0285 4.938 14.4805C6.253 15.9605 7.91 17.1275 9.426 18.3225C9.952 18.7375 10.421 19.1015 10.874 19.3655C11.326 19.6305 11.69 19.7505 12 19.7505C12.31 19.7505 12.674 19.6295 13.126 19.3655C13.579 19.1015 14.048 18.7375 14.574 18.3225C16.09 17.1275 17.747 15.9605 19.062 14.4805C20.35 13.0285 21.25 11.3345 21.25 9.13747C21.25 6.98647 20.035 5.18347 18.376 4.42447C16.764 3.68747 14.598 3.88347 12.54 6.02047C12.47 6.09306 12.3862 6.1508 12.2934 6.19023C12.2006 6.22967 12.1008 6.24999 12 6.24999C11.8992 6.24999 11.7994 6.22967 11.7066 6.19023Z" fill="#918299"/>
</svg>
