<svg width="1520" height="209" viewBox="0 0 1520 209" fill="none" xmlns="http://www.w3.org/2000/svg">
<g opacity="0.3">
<path d="M1520 129L1453.33 38.1151C1386.67 -52.7698 1253.33 -234.54 1120 -279.982C986.667 -325.425 853.333 -234.54 720 -132.294C586.667 -30.0486 453.333 83.5575 320 106.279C186.667 129 53.3333 60.8363 -13.3334 26.7545L-80 -7.32738" stroke="#DFDFF1"/>
<path d="M1520 142L1453.33 51.1151C1386.67 -39.7698 1253.33 -221.54 1120 -266.982C986.667 -312.425 853.333 -221.54 720 -119.294C586.667 -17.0486 453.333 96.5575 320 119.279C186.667 142 53.3333 73.8363 -13.3334 39.7545L-80 5.67262" stroke="#DFDFF1"/>
<path d="M1520 157L1453.33 66.1151C1386.67 -24.7698 1253.33 -206.54 1120 -251.982C986.667 -297.425 853.333 -206.54 720 -104.294C586.667 -2.04861 453.333 111.558 320 134.279C186.667 157 53.3333 88.8363 -13.3334 54.7545L-80 20.6726" stroke="#DFDFF1"/>
<path d="M1520 168L1453.33 77.1151C1386.67 -13.7698 1253.33 -195.54 1120 -240.982C986.667 -286.425 853.333 -195.54 720 -93.2942C586.667 8.95139 453.333 122.558 320 145.279C186.667 168 53.3333 99.8363 -13.3334 65.7545L-80 31.6726" stroke="#DFDFF1"/>
<path d="M1520 175L1453.33 84.1151C1386.67 -6.76984 1253.33 -188.54 1120 -233.982C986.667 -279.425 853.333 -188.54 720 -86.2942C586.667 15.9514 453.333 129.558 320 152.279C186.667 175 53.3333 106.836 -13.3334 72.7545L-80 38.6726" stroke="#DFDFF1"/>
<path d="M1520 188L1453.33 97.1151C1386.67 6.23016 1253.33 -175.54 1120 -220.982C986.667 -266.425 853.333 -175.54 720 -73.2942C586.667 28.9514 453.333 142.558 320 165.279C186.667 188 53.3333 119.836 -13.3334 85.7545L-80 51.6726" stroke="#DFDFF1"/>
<path d="M1520 203L1453.33 112.115C1386.67 21.2302 1253.33 -160.54 1120 -205.982C986.667 -251.425 853.333 -160.54 720 -58.2942C586.667 43.9514 453.333 157.558 320 180.279C186.667 203 53.3333 134.836 -13.3334 100.754L-80 66.6726" stroke="#DFDFF1"/>
<path d="M1520 214L1453.33 123.115C1386.67 32.2302 1253.33 -149.54 1120 -194.982C986.667 -240.425 853.333 -149.54 720 -47.2942C586.667 54.9514 453.333 168.558 320 191.279C186.667 214 53.3333 145.836 -13.3334 111.754L-80 77.6726" stroke="#DFDFF1"/>
<path d="M1520 226L1453.33 135.115C1386.67 44.2302 1253.33 -137.54 1120 -182.982C986.667 -228.425 853.333 -137.54 720 -35.2942C586.667 66.9514 453.333 180.558 320 203.279C186.667 226 53.3333 157.836 -13.3334 123.754L-80 89.6726" stroke="#DFDFF1"/>
<path d="M1520 239L1453.33 148.115C1386.67 57.2302 1253.33 -124.54 1120 -169.982C986.667 -215.425 853.333 -124.54 720 -22.2942C586.667 79.9514 453.333 193.558 320 216.279C186.667 239 53.3333 170.836 -13.3334 136.754L-80 102.673" stroke="#DFDFF1"/>
<path d="M1520 254L1453.33 163.115C1386.67 72.2302 1253.33 -109.54 1120 -154.982C986.667 -200.425 853.333 -109.54 720 -7.29416C586.667 94.9514 453.333 208.558 320 231.279C186.667 254 53.3333 185.836 -13.3334 151.754L-80 117.673" stroke="#DFDFF1"/>
<path d="M1520 265L1453.33 174.115C1386.67 83.2302 1253.33 -98.5397 1120 -143.982C986.667 -189.425 853.333 -98.5397 720 3.70584C586.667 105.951 453.333 219.558 320 242.279C186.667 265 53.3333 196.836 -13.3334 162.754L-80 128.673" stroke="#DFDFF1"/>
<path d="M1520 284L1453.33 193.115C1386.67 102.23 1253.33 -79.5397 1120 -124.982C986.667 -170.425 853.333 -79.5397 720 22.7058C586.667 124.951 453.333 238.558 320 261.279C186.667 284 53.3333 215.836 -13.3334 181.754L-80 147.673" stroke="#DFDFF1"/>
<path d="M1520 297L1453.33 206.115C1386.67 115.23 1253.33 -66.5397 1120 -111.982C986.667 -157.425 853.333 -66.5397 720 35.7058C586.667 137.951 453.333 251.558 320 274.279C186.667 297 53.3333 228.836 -13.3334 194.754L-80 160.673" stroke="#DFDFF1"/>
<path d="M1520 312L1453.33 221.115C1386.67 130.23 1253.33 -51.5397 1120 -96.9822C986.667 -142.425 853.333 -51.5397 720 50.7058C586.667 152.951 453.333 266.558 320 289.279C186.667 312 53.3333 243.836 -13.3334 209.754L-80 175.673" stroke="#DFDFF1"/>
<path d="M1520 323L1453.33 232.115C1386.67 141.23 1253.33 -40.5397 1120 -85.9822C986.667 -131.425 853.333 -40.5397 720 61.7058C586.667 163.951 453.333 277.558 320 300.279C186.667 323 53.3333 254.836 -13.3334 220.754L-80 186.673" stroke="#DFDFF1"/>
<path d="M1520 330L1453.33 239.115C1386.67 148.23 1253.33 -33.5397 1120 -78.9822C986.667 -124.425 853.333 -33.5397 720 68.7058C586.667 170.951 453.333 284.558 320 307.279C186.667 330 53.3333 261.836 -13.3334 227.754L-80 193.673" stroke="#DFDFF1"/>
<path d="M1520 343L1453.33 252.115C1386.67 161.23 1253.33 -20.5397 1120 -65.9822C986.667 -111.425 853.333 -20.5397 720 81.7058C586.667 183.951 453.333 297.558 320 320.279C186.667 343 53.3333 274.836 -13.3334 240.754L-80 206.673" stroke="#DFDFF1"/>
<path d="M1520 358L1453.33 267.115C1386.67 176.23 1253.33 -5.5397 1120 -50.9822C986.667 -96.4246 853.333 -5.5397 720 96.7058C586.667 198.951 453.333 312.558 320 335.279C186.667 358 53.3333 289.836 -13.3334 255.754L-80 221.673" stroke="#DFDFF1"/>
<path d="M1520 369L1453.33 278.115C1386.67 187.23 1253.33 5.4603 1120 -39.9822C986.667 -85.4246 853.333 5.4603 720 107.706C586.667 209.951 453.333 323.558 320 346.279C186.667 369 53.3333 300.836 -13.3334 266.754L-80 232.673" stroke="#DFDFF1"/>
<path d="M1520 381L1453.33 290.115C1386.67 199.23 1253.33 17.4603 1120 -27.9822C986.667 -73.4246 853.333 17.4603 720 119.706C586.667 221.951 453.333 335.558 320 358.279C186.667 381 53.3333 312.836 -13.3334 278.754L-80 244.673" stroke="#DFDFF1"/>
<path d="M1520 394L1453.33 303.115C1386.67 212.23 1253.33 30.4603 1120 -14.9822C986.667 -60.4246 853.333 30.4603 720 132.706C586.667 234.951 453.333 348.558 320 371.279C186.667 394 53.3333 325.836 -13.3334 291.754L-80 257.673" stroke="#DFDFF1"/>
<path d="M1520 409L1453.33 318.115C1386.67 227.23 1253.33 45.4603 1120 0.0178414C986.667 -45.4246 853.333 45.4603 720 147.706C586.667 249.951 453.333 363.558 320 386.279C186.667 409 53.3333 340.836 -13.3334 306.754L-80 272.673" stroke="#DFDFF1"/>
<path d="M1520 420L1453.33 329.115C1386.67 238.23 1253.33 56.4603 1120 11.0178C986.667 -34.4246 853.333 56.4603 720 158.706C586.667 260.951 453.333 374.558 320 397.279C186.667 420 53.3333 351.836 -13.3334 317.754L-80 283.673" stroke="#DFDFF1"/>
<path d="M1520 428L1453.33 337.115C1386.67 246.23 1253.33 64.4603 1120 19.0178C986.667 -26.4246 853.333 64.4603 720 166.706C586.667 268.951 453.333 382.558 320 405.279C186.667 428 53.3333 359.836 -13.3334 325.754L-80 291.673" stroke="#DFDFF1"/>
<path d="M1520 441L1453.33 350.115C1386.67 259.23 1253.33 77.4603 1120 32.0178C986.667 -13.4246 853.333 77.4603 720 179.706C586.667 281.951 453.333 395.558 320 418.279C186.667 441 53.3333 372.836 -13.3334 338.754L-80 304.673" stroke="#DFDFF1"/>
<path d="M1520 456L1453.33 365.115C1386.67 274.23 1253.33 92.4603 1120 47.0178C986.667 1.57538 853.333 92.4603 720 194.706C586.667 296.951 453.333 410.558 320 433.279C186.667 456 53.3333 387.836 -13.3334 353.754L-80 319.673" stroke="#DFDFF1"/>
<path d="M1520 467L1453.33 376.115C1386.67 285.23 1253.33 103.46 1120 58.0178C986.667 12.5754 853.333 103.46 720 205.706C586.667 307.951 453.333 421.558 320 444.279C186.667 467 53.3333 398.836 -13.3334 364.754L-80 330.673" stroke="#DFDFF1"/>
<path d="M1520 474L1453.33 383.115C1386.67 292.23 1253.33 110.46 1120 65.0178C986.667 19.5754 853.333 110.46 720 212.706C586.667 314.951 453.333 428.558 320 451.279C186.667 474 53.3333 405.836 -13.3334 371.754L-80 337.673" stroke="#DFDFF1"/>
<path d="M1520 487L1453.33 396.115C1386.67 305.23 1253.33 123.46 1120 78.0178C986.667 32.5754 853.333 123.46 720 225.706C586.667 327.951 453.333 441.558 320 464.279C186.667 487 53.3333 418.836 -13.3334 384.754L-80 350.673" stroke="#DFDFF1"/>
<path d="M1520 502L1453.33 411.115C1386.67 320.23 1253.33 138.46 1120 93.0178C986.667 47.5754 853.333 138.46 720 240.706C586.667 342.951 453.333 456.558 320 479.279C186.667 502 53.3333 433.836 -13.3334 399.754L-80 365.673" stroke="#DFDFF1"/>
<path d="M1520 513L1453.33 422.115C1386.67 331.23 1253.33 149.46 1120 104.018C986.667 58.5754 853.333 149.46 720 251.706C586.667 353.951 453.333 467.558 320 490.279C186.667 513 53.3333 444.836 -13.3334 410.754L-80 376.673" stroke="#DFDFF1"/>
<path d="M1520 525L1453.33 434.115C1386.67 343.23 1253.33 161.46 1120 116.018C986.667 70.5754 853.333 161.46 720 263.706C586.667 365.951 453.333 479.558 320 502.279C186.667 525 53.3333 456.836 -13.3334 422.754L-80 388.673" stroke="#DFDFF1"/>
<path d="M1520 538L1453.33 447.115C1386.67 356.23 1253.33 174.46 1120 129.018C986.667 83.5754 853.333 174.46 720 276.706C586.667 378.951 453.333 492.558 320 515.279C186.667 538 53.3333 469.836 -13.3334 435.754L-80 401.673" stroke="#DFDFF1"/>
<path d="M1520 553L1453.33 462.115C1386.67 371.23 1253.33 189.46 1120 144.018C986.667 98.5754 853.333 189.46 720 291.706C586.667 393.951 453.333 507.558 320 530.279C186.667 553 53.3333 484.836 -13.3334 450.754L-80 416.673" stroke="#DFDFF1"/>
<path d="M1520 564L1453.33 473.115C1386.67 382.23 1253.33 200.46 1120 155.018C986.667 109.575 853.333 200.46 720 302.706C586.667 404.951 453.333 518.558 320 541.279C186.667 564 53.3333 495.836 -13.3334 461.754L-80 427.673" stroke="#DFDFF1"/>
<path d="M1520 573L1453.33 482.115C1386.67 391.23 1253.33 209.46 1120 164.018C986.667 118.575 853.333 209.46 720 311.706C586.667 413.951 453.333 527.558 320 550.279C186.667 573 53.3333 504.836 -13.3334 470.754L-80 436.673" stroke="#DFDFF1"/>
<path d="M1520 586L1453.33 495.115C1386.67 404.23 1253.33 222.46 1120 177.018C986.667 131.575 853.333 222.46 720 324.706C586.667 426.951 453.333 540.558 320 563.279C186.667 586 53.3333 517.836 -13.3334 483.754L-80 449.673" stroke="#DFDFF1"/>
<path d="M1520 601L1453.33 510.115C1386.67 419.23 1253.33 237.46 1120 192.018C986.667 146.575 853.333 237.46 720 339.706C586.667 441.951 453.333 555.558 320 578.279C186.667 601 53.3333 532.836 -13.3334 498.754L-80 464.673" stroke="#DFDFF1"/>
<path d="M1520 612L1453.33 521.115C1386.67 430.23 1253.33 248.46 1120 203.018C986.667 157.575 853.333 248.46 720 350.706C586.667 452.951 453.333 566.558 320 589.279C186.667 612 53.3333 543.836 -13.3334 509.754L-80 475.673" stroke="#DFDFF1"/>
<path d="M1520 619L1453.33 528.115C1386.67 437.23 1253.33 255.46 1120 210.018C986.667 164.575 853.333 255.46 720 357.706C586.667 459.951 453.333 573.558 320 596.279C186.667 619 53.3333 550.836 -13.3334 516.754L-80 482.673" stroke="#DFDFF1"/>
<path d="M1520 632L1453.33 541.115C1386.67 450.23 1253.33 268.46 1120 223.018C986.667 177.575 853.333 268.46 720 370.706C586.667 472.951 453.333 586.558 320 609.279C186.667 632 53.3333 563.836 -13.3334 529.754L-80 495.673" stroke="#DFDFF1"/>
</g>
</svg>
