<svg width="50" height="50" viewBox="0 0 50 50" fill="none" xmlns="http://www.w3.org/2000/svg">
<path d="M18.7502 10.4166C18.1976 10.4166 17.6677 10.6361 17.277 11.0268C16.8863 11.4175 16.6668 11.9474 16.6668 12.5C16.6668 13.0525 16.8863 13.5824 17.277 13.9731C17.6677 14.3638 18.1976 14.5833 18.7502 14.5833C19.3027 14.5833 19.8326 14.3638 20.2233 13.9731C20.614 13.5824 20.8335 13.0525 20.8335 12.5C20.8335 11.9474 20.614 11.4175 20.2233 11.0268C19.8326 10.6361 19.3027 10.4166 18.7502 10.4166ZM12.8543 10.4166C13.2848 9.19678 14.083 8.14046 15.1389 7.39329C16.1949 6.64611 17.4566 6.24487 18.7502 6.24487C20.0437 6.24487 21.3055 6.64611 22.3614 7.39329C23.4174 8.14046 24.2156 9.19678 24.646 10.4166H39.5835C40.136 10.4166 40.6659 10.6361 41.0566 11.0268C41.4473 11.4175 41.6668 11.9474 41.6668 12.5C41.6668 13.0525 41.4473 13.5824 41.0566 13.9731C40.6659 14.3638 40.136 14.5833 39.5835 14.5833H24.646C24.2156 15.8032 23.4174 16.8595 22.3614 17.6067C21.3055 18.3538 20.0437 18.7551 18.7502 18.7551C17.4566 18.7551 16.1949 18.3538 15.1389 17.6067C14.083 16.8595 13.2848 15.8032 12.8543 14.5833H10.4168C9.86429 14.5833 9.33439 14.3638 8.94369 13.9731C8.55299 13.5824 8.3335 13.0525 8.3335 12.5C8.3335 11.9474 8.55299 11.4175 8.94369 11.0268C9.33439 10.6361 9.86429 10.4166 10.4168 10.4166H12.8543ZM31.2502 22.9166C30.6976 22.9166 30.1677 23.1361 29.777 23.5268C29.3863 23.9175 29.1668 24.4474 29.1668 25C29.1668 25.5525 29.3863 26.0824 29.777 26.4731C30.1677 26.8638 30.6976 27.0833 31.2502 27.0833C31.8027 27.0833 32.3326 26.8638 32.7233 26.4731C33.114 26.0824 33.3335 25.5525 33.3335 25C33.3335 24.4474 33.114 23.9175 32.7233 23.5268C32.3326 23.1361 31.8027 22.9166 31.2502 22.9166ZM25.3543 22.9166C25.7847 21.6968 26.583 20.6405 27.6389 19.8933C28.6949 19.1461 29.9566 18.7449 31.2502 18.7449C32.5437 18.7449 33.8055 19.1461 34.8614 19.8933C35.9174 20.6405 36.7156 21.6968 37.146 22.9166H39.5835C40.136 22.9166 40.6659 23.1361 41.0566 23.5268C41.4473 23.9175 41.6668 24.4474 41.6668 25C41.6668 25.5525 41.4473 26.0824 41.0566 26.4731C40.6659 26.8638 40.136 27.0833 39.5835 27.0833H37.146C36.7156 28.3032 35.9174 29.3595 34.8614 30.1067C33.8055 30.8538 32.5437 31.2551 31.2502 31.2551C29.9566 31.2551 28.6949 30.8538 27.6389 30.1067C26.583 29.3595 25.7847 28.3032 25.3543 27.0833H10.4168C9.86429 27.0833 9.33439 26.8638 8.94369 26.4731C8.55299 26.0824 8.3335 25.5525 8.3335 25C8.3335 24.4474 8.55299 23.9175 8.94369 23.5268C9.33439 23.1361 9.86429 22.9166 10.4168 22.9166H25.3543ZM18.7502 35.4166C18.1976 35.4166 17.6677 35.6361 17.277 36.0268C16.8863 36.4175 16.6668 36.9474 16.6668 37.5C16.6668 38.0525 16.8863 38.5824 17.277 38.9731C17.6677 39.3638 18.1976 39.5833 18.7502 39.5833C19.3027 39.5833 19.8326 39.3638 20.2233 38.9731C20.614 38.5824 20.8335 38.0525 20.8335 37.5C20.8335 36.9474 20.614 36.4175 20.2233 36.0268C19.8326 35.6361 19.3027 35.4166 18.7502 35.4166ZM12.8543 35.4166C13.2848 34.1968 14.083 33.1405 15.1389 32.3933C16.1949 31.6461 17.4566 31.2449 18.7502 31.2449C20.0437 31.2449 21.3055 31.6461 22.3614 32.3933C23.4174 33.1405 24.2156 34.1968 24.646 35.4166H39.5835C40.136 35.4166 40.6659 35.6361 41.0566 36.0268C41.4473 36.4175 41.6668 36.9474 41.6668 37.5C41.6668 38.0525 41.4473 38.5824 41.0566 38.9731C40.6659 39.3638 40.136 39.5833 39.5835 39.5833H24.646C24.2156 40.8032 23.4174 41.8595 22.3614 42.6067C21.3055 43.3538 20.0437 43.7551 18.7502 43.7551C17.4566 43.7551 16.1949 43.3538 15.1389 42.6067C14.083 41.8595 13.2848 40.8032 12.8543 39.5833H10.4168C9.86429 39.5833 9.33439 39.3638 8.94369 38.9731C8.55299 38.5824 8.3335 38.0525 8.3335 37.5C8.3335 36.9474 8.55299 36.4175 8.94369 36.0268C9.33439 35.6361 9.86429 35.4166 10.4168 35.4166H12.8543Z" fill="#240532"/>
</svg>
