<svg width="85" height="16" viewBox="0 0 85 16" fill="none" xmlns="http://www.w3.org/2000/svg">
<path fill-rule="evenodd" clip-rule="evenodd" d="M7.5 15.5C7.485 11.363 4.13291 8.0139 0 8.0139C4.14213 8.0139 7.5 4.64977 7.5 0.5C7.51493 4.63704 10.8671 7.9861 15 7.9861C10.8578 7.9861 7.5 11.3502 7.5 15.5Z" fill="#240532"/>
<path fill-rule="evenodd" clip-rule="evenodd" d="M42.5 15.5C42.485 11.363 39.1329 8.0139 35 8.0139C39.1421 8.0139 42.5 4.64977 42.5 0.5C42.5149 4.63704 45.8671 7.9861 50 7.9861C45.8578 7.9861 42.5 11.3502 42.5 15.5Z" fill="#240532"/>
<path fill-rule="evenodd" clip-rule="evenodd" d="M77.5 15.5C77.485 11.363 74.1329 8.0139 70 8.0139C74.1421 8.0139 77.5 4.64977 77.5 0.5C77.5149 4.63704 80.8671 7.9861 85 7.9861C80.8578 7.9861 77.5 11.3502 77.5 15.5Z" fill="#240532"/>
</svg>
