<svg width="85" height="15" viewBox="0 0 85 15" fill="none" xmlns="http://www.w3.org/2000/svg">
<path fill-rule="evenodd" clip-rule="evenodd" d="M7.5 15C7.485 10.863 4.13291 7.5139 0 7.5139C4.14213 7.5139 7.5 4.14977 7.5 0C7.51493 4.13704 10.8671 7.4861 15 7.4861C10.8578 7.4861 7.5 10.8502 7.5 15Z" fill="#918299"/>
<path fill-rule="evenodd" clip-rule="evenodd" d="M42.5 15C42.485 10.863 39.1329 7.5139 35 7.5139C39.1421 7.5139 42.5 4.14977 42.5 0C42.5149 4.13704 45.8671 7.4861 50 7.4861C45.8578 7.4861 42.5 10.8502 42.5 15Z" fill="#918299"/>
<path fill-rule="evenodd" clip-rule="evenodd" d="M77.5 15C77.485 10.863 74.1329 7.5139 70 7.5139C74.1421 7.5139 77.5 4.14977 77.5 0C77.5149 4.13704 80.8671 7.4861 85 7.4861C80.8578 7.4861 77.5 10.8502 77.5 15Z" fill="#918299"/>
</svg>
