<svg width="50" height="50" viewBox="0 0 50 50" fill="none" xmlns="http://www.w3.org/2000/svg">
<path d="M25 0.000732422C11.2 0.000732422 0 11.2007 0 25.0007C0 38.8007 11.2 50.0007 25 50.0007C38.8 50.0007 50 38.8007 50 25.0007C50 11.2007 38.8 0.000732422 25 0.000732422ZM36.6 17.0007C36.225 20.9507 34.6 30.5507 33.775 34.9757C33.425 36.8507 32.725 37.4757 32.075 37.5507C30.625 37.6757 29.525 36.6007 28.125 35.6757C25.925 34.2257 24.675 33.3257 22.55 31.9257C20.075 30.3007 21.675 29.4007 23.1 27.9507C23.475 27.5757 29.875 21.7507 30 21.2257C30.0174 21.1462 30.0151 21.0637 29.9933 20.9852C29.9715 20.9068 29.9309 20.8349 29.875 20.7757C29.725 20.6507 29.525 20.7007 29.35 20.7257C29.125 20.7757 25.625 23.1007 18.8 27.7007C17.8 28.3757 16.9 28.7257 16.1 28.7007C15.2 28.6757 13.5 28.2007 12.225 27.7757C10.65 27.2757 9.425 27.0007 9.525 26.1257C9.575 25.6757 10.2 25.2257 11.375 24.7507C18.675 21.5757 23.525 19.4757 25.95 18.4757C32.9 15.5757 34.325 15.0757 35.275 15.0757C35.475 15.0757 35.95 15.1257 36.25 15.3757C36.5 15.5757 36.575 15.8507 36.6 16.0507C36.575 16.2007 36.625 16.6507 36.6 17.0007Z" fill="#240532"/>
</svg>
