<svg width="20" height="20" viewBox="0 0 20 20" fill="none" xmlns="http://www.w3.org/2000/svg">
<path d="M17.8278 10C17.8278 9.77 17.818 9.55 17.7984 9.32L19.6157 7.91C20.0065 7.61 20.114 7.05 19.8698 6.61L18.0427 3.38C17.9256 3.16818 17.7361 3.00814 17.5106 2.93062C17.2852 2.8531 17.0398 2.86356 16.8214 2.96L14.7208 3.87C14.3593 3.61 13.9782 3.38 13.5777 3.19L13.2943 0.88C13.2357 0.38 12.8156 0 12.3271 0H8.68272C8.18443 0 7.7643 0.38 7.70568 0.88L7.42234 3.19C7.02176 3.38 6.64071 3.61 6.27921 3.87L4.17859 2.96C3.72915 2.76 3.20155 2.94 2.95729 3.38L1.13024 6.62C0.885978 7.06 0.993452 7.61 1.38427 7.92L3.20155 9.33C3.16105 9.77905 3.16105 10.231 3.20155 10.68L1.38427 12.09C0.993452 12.39 0.885978 12.95 1.13024 13.39L2.95729 16.62C3.20155 17.06 3.72915 17.24 4.17859 17.04L6.27921 16.13C6.64071 16.39 7.02176 16.62 7.42234 16.81L7.70568 19.12C7.7643 19.62 8.18443 20 8.67295 20H12.3173C12.8058 20 13.2259 19.62 13.2845 19.12L13.5679 16.81C13.9685 16.62 14.3495 16.39 14.711 16.13L16.8116 17.04C17.2611 17.24 17.7887 17.06 18.0329 16.62L19.86 13.39C20.1043 12.95 19.9968 12.4 19.606 12.09L17.7887 10.68C17.818 10.45 17.8278 10.23 17.8278 10ZM10.5391 13.5C8.6534 13.5 7.11946 11.93 7.11946 10C7.11946 8.07 8.6534 6.5 10.5391 6.5C12.4248 6.5 13.9587 8.07 13.9587 10C13.9587 11.93 12.4248 13.5 10.5391 13.5Z" fill="#240532"/>
</svg>
