<svg width="26" height="40" viewBox="0 0 26 40" fill="none" xmlns="http://www.w3.org/2000/svg">
<path d="M12.9926 20.0076C12.9926 16.3327 15.8979 13.3384 19.4963 13.3384C23.08 13.3384 26 16.3176 26 20.0076C26 23.6824 23.0947 26.6768 19.4963 26.6768C15.9126 26.6768 12.9926 23.6824 12.9926 20.0076Z" fill="#918299"/>
<path d="M0 33.3308C0 29.656 2.90527 26.6616 6.50369 26.6616H13.0074V33.3308C13.0074 37.0057 10.1021 40 6.50369 40C2.90527 40 0 37.0208 0 33.3308Z" fill="#828282"/>
<path d="M12.9926 0.0151229V13.3384H19.4963C23.08 13.3384 26 10.3592 26 6.66919C26 2.99433 23.0947 0 19.4963 0H12.9926V0.0151229Z" fill="#55587B"/>
<path d="M0 6.68432C0 10.3592 2.90527 13.3535 6.50369 13.3535H13.0074V0.0151367H6.50369C2.90527 0.0151367 0 2.99434 0 6.68432Z" fill="#626085"/>
<path d="M0 20.0076C0 23.6824 2.90527 26.6768 6.50369 26.6768H13.0074V13.3384H6.50369C2.90527 13.3384 0 16.3327 0 20.0076Z" fill="#8D8494"/>
</svg>
