<svg width="268" height="280" viewBox="0 0 268 280" fill="none" xmlns="http://www.w3.org/2000/svg">
<path d="M136.714 142.734C137.71 142.644 138.248 144.529 136.714 145.513C135.36 146.561 132.193 145.799 131.29 142.734C130.214 139.839 132.281 135.309 136.714 134.398C140.97 133.265 146.731 136.69 147.563 142.734C148.72 148.578 144.045 155.819 136.714 156.629C129.558 157.852 121.194 151.732 120.439 142.734C119.19 133.921 126.495 124.013 136.714 123.282C146.757 121.98 157.755 130.767 158.412 142.734C159.735 154.533 149.836 167.088 136.714 167.744C123.752 169.136 110.195 157.677 109.59 142.734C108.212 127.993 120.673 112.723 136.714 112.167C152.579 110.695 168.734 124.822 169.261 142.734C170.734 160.45 155.648 178.384 136.714 178.86C117.96 180.405 99.1752 163.615 98.7414 142.734C97.1918 122.049 114.881 101.449 136.714 101.051C158.366 99.4057 179.753 118.895 180.11 142.734C181.738 166.378 161.445 189.673 136.714 189.975C112.164 191.695 88.1721 169.549 87.8924 142.734C86.1877 116.1 109.09 90.1799 136.714 89.9364C164.156 88.1574 190.773 112.929 190.959 142.734C192.757 172.339 167.23 200.926 136.714 201.09C106.377 202.948 77.152 175.509 77.0436 142.734C75.1682 110.166 103.298 78.8946 136.714 78.8205C169.948 76.8568 201.778 107.016 201.808 142.734C203.761 178.272 173.027 212.217 136.714 212.206C100.587 214.238 66.1325 181.443 66.1945 142.734C64.1486 104.228 97.5117 67.6204 136.714 67.7051C175.76 65.5879 212.776 101.073 212.657 142.734C214.76 184.206 178.839 223.502 136.714 223.322C94.7641 225.528 55.1542 187.371 55.3453 142.734C53.1704 98.2937 91.6903 56.3302 136.714 56.5896C181.551 54.2977 223.795 95.1441 223.506 142.734C225.775 190.16 184.63 234.77 136.714 234.436C88.9775 236.803 44.1294 193.309 44.4962 142.734C42.1508 92.3501 85.8984 45.0455 136.714 45.4742C187.348 43.0129 234.8 89.2005 234.355 142.734C236.779 196.11 190.427 246.039 136.714 245.552C83.1909 248.071 33.1099 199.264 33.6472 142.734C31.126 86.3838 80.1123 33.7977 136.714 34.3587C193.139 31.7598 245.814 83.2349 245.204 142.734C247.803 202.043 196.213 257.329 136.714 256.668C77.3897 259.356 22.111 205.198 22.7981 142.734C20.1271 80.4561 74.3158 22.5076 136.714 23.2433C198.925 20.4697 256.833 77.3067 256.053 142.734C258.823 207.982 201.999 268.603 136.714 267.783C71.5829 270.636 11.112 211.132 11.9489 142.734C9.12818 74.5437 68.5037 11.2069 136.714 12.1278C204.748 9.18491 267.817 71.3732 266.902 142.734C269.801 213.911 207.822 279.894 136.714 278.898C65.7914 281.926 0.0924996 217.065 1.09992 142.734C-1.89142 68.589 62.7124 -0.0620558 136.714 1.01245" stroke="#240532" stroke-linecap="round"/>
</svg>
