<svg width="20" height="20" viewBox="0 0 20 20" fill="none" xmlns="http://www.w3.org/2000/svg">
<g clip-path="url(#clip0_837_130)">
<path d="M0.0976562 8.17646C0.0390625 8.66436 0 9.1604 0 9.66457C0 14.0964 2.33203 17.9549 5.78516 20L6.42969 18.5851V8.92051L5.71484 8.17646H0.0976562ZM20 8.92051C20 8.17646 19.2852 7.43241 18.5703 7.43241H12.8555C13.2109 5.9443 13.5703 4.46026 13.5703 3.7162C13.5703 2.2281 12.8555 0.744054 12.5 0.369994C12.4922 0.361862 12.1445 0 11.4297 0C10.3594 0 10.3594 1.11405 10.3594 1.11405C10.3594 1.13438 10.0039 2.97215 10.0039 3.7162C10.0039 4.46026 8.57422 7.43241 7.85937 8.17646L7.14453 8.54645V18.9551L7.85937 19.3251H15.7148C17.1445 19.3251 17.8594 18.581 17.8594 17.837C17.8594 17.0929 17.1445 16.3489 16.4297 16.3489C17.8594 16.3489 18.5742 15.6048 18.5742 14.8607C18.5742 14.1167 17.8594 13.3726 17.1445 13.3726C18.5742 13.3726 19.2891 12.6286 19.2891 11.8845C19.2891 11.1405 18.5742 10.3964 17.8594 10.3964C19.2852 10.4086 20 9.66457 20 8.92051Z" fill="#240532"/>
</g>
<defs>
<clipPath id="clip0_837_130">
<rect width="20" height="20" fill="white"/>
</clipPath>
</defs>
</svg>
