<svg width="200" height="27" viewBox="0 0 200 27" fill="none" xmlns="http://www.w3.org/2000/svg">
<path d="M4.90039 21.7803C4.79297 22.0732 4.60254 22.1807 4.3291 22.1025C4.05566 22.0342 3.93359 21.8438 3.96289 21.5312C4.30469 20.0371 4.66602 18.5479 5.04688 17.0635C6.39453 11.7119 8.07422 6.46777 10.0859 1.33105C10.1934 1.05762 10.3887 0.945313 10.6719 0.994141C10.9453 1.10156 11.0576 1.29688 11.0088 1.58008C10.4424 3.00586 9.91016 4.44141 9.41211 5.88672C7.60547 11.1016 6.10156 16.3994 4.90039 21.7803ZM5.53027 2.8252C5.2373 2.87402 5.03711 2.76172 4.92969 2.48828C4.88086 2.19531 4.99316 2 5.2666 1.90234C5.55957 1.86328 5.85254 1.82422 6.14551 1.78516C8.71387 1.43359 11.2676 1.5166 13.8066 2.03418C15.0469 2.29785 16.2041 2.76172 17.2783 3.42578C18.3623 4.08984 19.1924 5.00293 19.7686 6.16504C20.1592 7.02441 20.3643 7.91797 20.3838 8.8457C20.4033 9.77344 20.2715 10.6816 19.9883 11.5703C19.4219 13.1719 18.6113 14.6416 17.5566 15.9795C15.5059 18.626 13.0596 20.8379 10.2178 22.6152C7.4541 24.3828 4.51465 25.7793 1.39941 26.8047C1.09668 26.8633 0.90625 26.7559 0.828125 26.4824C0.75 26.2188 0.852539 26.0186 1.13574 25.8818C1.49707 25.7646 1.85352 25.6377 2.20508 25.501C5.16406 24.4365 7.94238 23.0205 10.54 21.2529C11.8291 20.374 13.0449 19.3975 14.1875 18.3232C15.3301 17.249 16.3457 16.0674 17.2344 14.7783C17.7031 14.1045 18.123 13.4014 18.4941 12.6689C18.8652 11.9365 19.1338 11.165 19.2998 10.3545C19.6318 8.7627 19.3682 7.27832 18.5088 5.90137C17.8838 4.99316 17.0537 4.29492 16.0186 3.80664C14.9346 3.29883 13.7871 2.95703 12.5762 2.78125C11.3555 2.5957 10.1104 2.51758 8.84082 2.54688C8.24512 2.56641 7.64453 2.60059 7.03906 2.64941C6.76562 2.67871 6.49219 2.70801 6.21875 2.7373C6.15039 2.74707 6.08203 2.75684 6.01367 2.7666C6.00391 2.7666 5.97461 2.77148 5.92578 2.78125C5.87695 2.78125 5.86719 2.78125 5.89648 2.78125C5.76953 2.79102 5.64746 2.80566 5.53027 2.8252ZM19.3584 16.3018C19.251 16.3115 19.1582 16.2725 19.0801 16.1846C19.002 16.0967 18.9629 16.0039 18.9629 15.9062C18.9629 15.6816 19.0947 15.5547 19.3584 15.5254C20.0811 15.457 20.8086 15.3496 21.541 15.2031C22.2734 15.0566 22.9717 14.8174 23.6357 14.4854C24.2217 14.2119 24.7246 13.8311 25.1445 13.3428C25.3301 13.1377 25.418 12.9082 25.4082 12.6543C25.3789 12.5371 25.3008 12.459 25.1738 12.4199C25.0566 12.3711 24.9443 12.3418 24.8369 12.332C24.1533 12.2637 23.5234 12.3906 22.9473 12.7129C22.3711 13.0352 21.9316 13.499 21.6289 14.1045C21.3555 14.6807 21.2676 15.2812 21.3652 15.9062C21.4141 16.1992 21.5557 16.4287 21.79 16.5947C22.0049 16.7314 22.2393 16.8145 22.4932 16.8438C23.0889 16.8828 23.6504 16.7607 24.1777 16.4775C24.7051 16.2236 25.1885 15.9062 25.6279 15.5254C25.8135 15.3691 25.999 15.3691 26.1846 15.5254C26.3311 15.7109 26.3311 15.8965 26.1846 16.082C25.5889 16.6191 24.8857 17.0537 24.0752 17.3857C23.2744 17.7178 22.4785 17.7324 21.6875 17.4297C21.1602 17.1758 20.8184 16.7998 20.6621 16.3018C20.5156 15.8037 20.501 15.2764 20.6182 14.7197C20.7354 14.1631 20.9307 13.6748 21.2041 13.2549C21.6826 12.5518 22.3223 12.0537 23.123 11.7607C23.4941 11.624 23.8945 11.5459 24.3242 11.5264C24.7637 11.4971 25.1689 11.5605 25.54 11.7168C25.9404 11.9121 26.1602 12.2344 26.1992 12.6836C26.1895 13.1035 26.0479 13.4795 25.7744 13.8115C25.2666 14.4072 24.6562 14.8711 23.9434 15.2031C23.2305 15.5449 22.4834 15.7939 21.7021 15.9502C20.9209 16.1064 20.1396 16.2236 19.3584 16.3018ZM32.5566 12.9033C32.6543 13.1084 32.6152 13.2598 32.4395 13.3574C32.2637 13.4551 32.1025 13.4209 31.9561 13.2549C31.4385 12.542 30.7305 12.1953 29.832 12.2148C29.5391 12.2051 29.2461 12.249 28.9531 12.3467C28.6797 12.4248 28.5039 12.5762 28.4258 12.8008C28.4062 12.9082 28.4258 13.0303 28.4844 13.167C28.582 13.3232 28.7041 13.4404 28.8506 13.5186C28.8799 13.5283 28.9043 13.543 28.9238 13.5625C28.9824 13.582 28.9922 13.582 28.9531 13.5625C29.002 13.5918 29.0557 13.6113 29.1143 13.6211C29.2314 13.6602 29.3486 13.6943 29.4658 13.7236C30.0225 13.8311 30.5791 13.958 31.1357 14.1045C31.7021 14.2412 32.1514 14.5439 32.4834 15.0127C32.6787 15.3643 32.7324 15.7256 32.6445 16.0967C32.5664 16.458 32.3857 16.7705 32.1025 17.0342C31.6436 17.4443 31.1016 17.6641 30.4766 17.6934C29.8516 17.7227 29.2559 17.6396 28.6895 17.4443C28.1426 17.2783 27.6836 16.9854 27.3125 16.5654C26.9316 16.0771 26.8193 15.5352 26.9756 14.9395C27.0635 14.7344 27.2002 14.6611 27.3857 14.7197C27.5811 14.7686 27.6641 14.9004 27.6348 15.1152C27.5566 15.3594 27.5664 15.6084 27.6641 15.8623C27.6641 15.833 27.6738 15.8477 27.6934 15.9062C27.7031 15.9258 27.7129 15.9453 27.7227 15.9648C27.7422 16.0039 27.7666 16.0381 27.7959 16.0674C27.8252 16.1064 27.8301 16.1162 27.8105 16.0967C27.8887 16.1943 27.9814 16.2871 28.0889 16.375C28.1182 16.3945 28.1182 16.3945 28.0889 16.375C28.1084 16.3848 28.1279 16.3994 28.1475 16.4189C28.1768 16.4385 28.2012 16.458 28.2207 16.4775C28.2793 16.5068 28.3379 16.541 28.3965 16.5801C28.5332 16.6484 28.6602 16.7021 28.7773 16.7412C29.0605 16.8486 29.3535 16.9268 29.6562 16.9756C29.6953 16.9756 29.7002 16.9756 29.6709 16.9756C29.6904 16.9756 29.7148 16.9756 29.7441 16.9756C29.7734 16.9854 29.8076 16.9902 29.8467 16.9902C29.9053 17 29.9639 17.0049 30.0225 17.0049C30.1494 17.0146 30.2764 17.0146 30.4033 17.0049C30.4619 17.0049 30.5254 17 30.5938 16.9902C30.623 16.9902 30.6523 16.9854 30.6816 16.9756C30.6523 16.9854 30.6621 16.9854 30.7109 16.9756C30.8184 16.9561 30.9209 16.9316 31.0186 16.9023C31.3408 16.7949 31.5996 16.6094 31.7949 16.3457C31.9023 16.209 31.9707 16.0576 32 15.8916C32 15.8428 32 15.7939 32 15.7451C32 15.7354 31.9951 15.7158 31.9854 15.6865C31.9854 15.6475 31.9902 15.6426 32 15.6719C31.9902 15.623 31.9756 15.5693 31.9561 15.5107C31.8975 15.335 31.79 15.1934 31.6338 15.0859C31.4287 14.9395 31.2188 14.8369 31.0039 14.7783C30.457 14.6318 29.9102 14.5098 29.3633 14.4121C29.0508 14.3438 28.7529 14.2363 28.4697 14.0898C28.1963 13.9336 27.9863 13.7041 27.8398 13.4014C27.6836 13.0303 27.7031 12.6641 27.8984 12.3027C28.084 12.0293 28.3379 11.834 28.6602 11.7168C29.2852 11.502 29.9297 11.458 30.5938 11.585C31.4336 11.751 32.0879 12.1904 32.5566 12.9033ZM34.71 11.6582C34.7881 11.4531 34.9346 11.3701 35.1494 11.4092C35.3545 11.4873 35.4375 11.6338 35.3984 11.8486C35.0371 13.7334 34.6025 15.6035 34.0947 17.459C34.0068 17.6738 33.8604 17.7568 33.6553 17.708C33.46 17.6494 33.377 17.5029 33.4062 17.2686C33.9043 15.4131 34.3389 13.543 34.71 11.6582ZM34.7539 10.6475C34.7539 10.5791 34.7686 10.5205 34.7979 10.4717C34.8174 10.4424 34.8369 10.418 34.8564 10.3984C34.9053 10.3496 34.959 10.3154 35.0176 10.2959C35.0469 10.2959 35.0811 10.2959 35.1201 10.2959C35.1689 10.2861 35.2129 10.2959 35.252 10.3252C35.291 10.335 35.3301 10.3594 35.3691 10.3984C35.3984 10.4277 35.4229 10.4668 35.4424 10.5156C35.4619 10.5547 35.4717 10.5986 35.4717 10.6475C35.4717 10.667 35.4717 10.6865 35.4717 10.7061C35.4717 10.7646 35.457 10.8232 35.4277 10.8818C35.4082 10.9111 35.3887 10.9355 35.3691 10.9551C35.3203 11.0039 35.2666 11.0332 35.208 11.043C35.1787 11.0527 35.1494 11.0576 35.1201 11.0576C35.0615 11.0674 35.0127 11.0576 34.9736 11.0283C34.9346 11.0186 34.8955 10.9941 34.8564 10.9551C34.8271 10.9258 34.8027 10.8867 34.7832 10.8379C34.7637 10.7988 34.7539 10.7549 34.7539 10.7061C34.7539 10.6865 34.7539 10.667 34.7539 10.6475ZM38.9141 12.4346C38.6895 12.4736 38.5381 12.3906 38.46 12.1855C38.4209 11.9609 38.5039 11.8096 38.709 11.7314C38.9238 11.6436 39.1387 11.5703 39.3535 11.5117C39.8418 11.3652 40.3301 11.3457 40.8184 11.4531C41.3555 11.6289 41.7217 11.9902 41.917 12.5371C42.1123 13.1914 42.127 13.8604 41.9609 14.5439C41.8438 15.1787 41.6973 15.8086 41.5215 16.4336C40.8184 19.0508 39.6416 21.4287 37.9912 23.5674C37.5908 24.085 37.1514 24.5732 36.6729 25.0322C36.2041 25.4912 35.6768 25.8623 35.0908 26.1455C34.5537 26.4092 33.9775 26.5361 33.3623 26.5264C32.7471 26.5166 32.2637 26.2334 31.9121 25.6768C31.6484 25.1592 31.5947 24.6172 31.751 24.0508C31.9072 23.4941 32.1514 22.9961 32.4834 22.5566C32.874 22.0586 33.3135 21.6045 33.8018 21.1943C34.2803 20.7842 34.7783 20.3936 35.2959 20.0225C37.5811 18.4014 40.0615 17.166 42.7373 16.3164C42.9814 16.2773 43.1279 16.3652 43.1768 16.5801C43.2354 16.7852 43.1572 16.9365 42.9424 17.0342C42.6396 17.1318 42.3369 17.2344 42.0342 17.3418C39.6221 18.2109 37.3906 19.4023 35.3398 20.916C34.8906 21.2383 34.4561 21.5898 34.0361 21.9707C33.6064 22.3418 33.2402 22.7617 32.9375 23.2305C32.7031 23.5625 32.5371 23.958 32.4395 24.417C32.332 24.8857 32.4492 25.2764 32.791 25.5889C33.2012 25.833 33.6357 25.8818 34.0947 25.7354C34.5928 25.5889 35.0518 25.3643 35.4717 25.0615C35.9697 24.7002 36.4189 24.2852 36.8193 23.8164C37.2295 23.3574 37.6104 22.8789 37.9619 22.3809C39.3584 20.3301 40.3545 18.0986 40.9502 15.6865C41.1064 15.1201 41.2236 14.5488 41.3018 13.9727C41.3311 13.7188 41.3311 13.4551 41.3018 13.1816C41.2822 12.8984 41.1943 12.6543 41.0381 12.4492C40.9307 12.3125 40.8037 12.2246 40.6572 12.1855C40.4814 12.1367 40.291 12.1221 40.0859 12.1416C39.6953 12.1807 39.3047 12.2783 38.9141 12.4346ZM38.5479 17.0781C38.4502 17.0781 38.3623 17.0391 38.2842 16.9609C38.2158 16.8828 38.1816 16.7998 38.1816 16.7119C38.1816 16.4971 38.3037 16.3701 38.5479 16.3311C39.0459 16.292 39.4902 16.126 39.8809 15.833C40.2812 15.5303 40.6035 15.1689 40.8477 14.749C41.0723 14.4072 41.2334 14.002 41.3311 13.5332C41.4287 13.0645 41.3018 12.6787 40.9502 12.376C40.5791 12.1318 40.1738 12.0488 39.7344 12.127C39.3047 12.2051 38.9189 12.3711 38.5771 12.625C37.874 13.1426 37.3662 13.8066 37.0537 14.6172C36.9854 14.8027 36.9463 14.9736 36.9365 15.1299C36.917 15.3057 36.9268 15.4619 36.9658 15.5986C36.9951 15.7256 37.0586 15.833 37.1562 15.9209C37.2637 16.0283 37.4053 16.1016 37.5811 16.1406C37.8057 16.2383 37.8887 16.3945 37.8301 16.6094C37.7715 16.8145 37.625 16.8975 37.3906 16.8584C36.8047 16.7021 36.4238 16.3408 36.248 15.7744C36.1309 15.2373 36.1846 14.7197 36.4092 14.2217C36.8584 13.167 37.5713 12.3467 38.5479 11.7607C39.0459 11.4873 39.5928 11.3604 40.1885 11.3799C40.7939 11.3896 41.2969 11.6191 41.6973 12.0684C42.0586 12.5762 42.1709 13.1377 42.0342 13.7529C41.9072 14.3682 41.6729 14.9102 41.3311 15.3789C40.999 15.8477 40.5986 16.2383 40.1299 16.5508C39.6611 16.8535 39.1338 17.0293 38.5479 17.0781ZM43.8359 17.415C43.7578 17.6299 43.6162 17.708 43.4111 17.6494C43.2061 17.5908 43.1133 17.4492 43.1328 17.2246C43.2109 16.8633 43.2939 16.5117 43.3818 16.1699C43.5088 15.7012 43.6309 15.2373 43.748 14.7783C44.002 13.8213 44.2412 12.8545 44.4658 11.8779C44.5439 11.6631 44.6855 11.585 44.8906 11.6436C45.0957 11.6924 45.1836 11.834 45.1543 12.0684C45.0078 12.7324 44.8516 13.3916 44.6855 14.0459C44.3828 15.1592 44.0996 16.2822 43.8359 17.415ZM47.5713 17.415C47.4932 17.6299 47.3516 17.708 47.1465 17.6494C46.9414 17.5908 46.8535 17.4492 46.8828 17.2246C46.9609 16.8633 47.0391 16.5117 47.1172 16.1699C47.2441 15.7012 47.3711 15.2373 47.498 14.7783C47.752 13.8213 47.9863 12.8545 48.2012 11.8779C48.2891 11.6631 48.4307 11.585 48.626 11.6436C48.8311 11.6924 48.9238 11.834 48.9043 12.0684C48.748 12.7324 48.5869 13.3916 48.4209 14.0459C48.1279 15.1592 47.8447 16.2822 47.5713 17.415ZM47.5273 17.1367C47.625 17.332 47.5859 17.4932 47.4102 17.6201C47.2051 17.7178 47.0391 17.6738 46.9121 17.4883C46.7461 17.1465 46.585 16.8047 46.4287 16.4629C46.3213 16.2188 46.2139 15.9795 46.1064 15.7451C46.0576 15.6279 46.0137 15.5107 45.9746 15.3936C45.9648 15.374 45.9551 15.3545 45.9453 15.335C45.9355 15.3057 45.9355 15.3105 45.9453 15.3496C45.9355 15.3203 45.9258 15.291 45.916 15.2617C45.8867 15.1934 45.8574 15.1299 45.8281 15.0713C45.4082 14.0947 44.9688 13.1328 44.5098 12.1855C44.4121 11.9902 44.4512 11.8291 44.627 11.7021C44.832 11.6045 44.998 11.6436 45.125 11.8193C45.4375 12.4736 45.7402 13.123 46.0332 13.7676C46.3066 14.373 46.5703 14.9785 46.8242 15.584C46.834 15.6035 46.8389 15.623 46.8389 15.6426C46.8291 15.6035 46.8291 15.5938 46.8389 15.6133C46.8486 15.6426 46.8584 15.667 46.8682 15.6865C46.8877 15.7354 46.9072 15.7891 46.9268 15.8477C46.9854 15.9648 47.0391 16.082 47.0879 16.1992C47.2344 16.5117 47.3809 16.8242 47.5273 17.1367ZM60.4326 1.93164C60.5107 1.70703 60.667 1.59961 60.9014 1.60938C61.1357 1.67773 61.2432 1.8291 61.2236 2.06348C60.8721 3.17676 60.5254 4.29492 60.1836 5.41797C59.002 9.38281 57.9326 13.3721 56.9756 17.3857C56.8877 17.6201 56.7266 17.7178 56.4922 17.6787C56.2676 17.6396 56.1699 17.498 56.1992 17.2539C56.4629 16.1113 56.7412 14.9736 57.0342 13.8408C58.0596 9.83691 59.1924 5.86719 60.4326 1.93164ZM59.1143 17.3418C58.9971 17.3516 58.8994 17.3174 58.8213 17.2393C58.7432 17.1514 58.7041 17.0586 58.7041 16.9609C58.7041 16.7461 58.8408 16.6191 59.1143 16.5801C59.6416 16.5312 60.1152 16.3555 60.5352 16.0527C60.9648 15.75 61.3115 15.3838 61.5752 14.9541C61.8096 14.6025 61.9756 14.1875 62.0732 13.709C62.1807 13.2207 62.0488 12.8252 61.6777 12.5225C61.2773 12.2686 60.8428 12.1807 60.374 12.2588C59.915 12.3369 59.5 12.5078 59.1289 12.7715C58.377 13.2988 57.835 13.9824 57.5029 14.8223C57.4346 15.0078 57.3906 15.1836 57.3711 15.3496C57.3516 15.5254 57.3613 15.6816 57.4004 15.8184C57.4395 15.9551 57.5078 16.0723 57.6055 16.1699C57.7324 16.2676 57.8838 16.3408 58.0596 16.3896C58.3037 16.4873 58.3916 16.6436 58.3232 16.8584C58.2646 17.0732 58.1084 17.1611 57.8545 17.1221C57.2295 16.9658 56.8193 16.5947 56.624 16.0088C56.5068 15.4619 56.5703 14.9297 56.8145 14.4121C57.293 13.3281 58.0547 12.4834 59.0996 11.8779C59.6367 11.6045 60.2275 11.4775 60.8721 11.4971C61.5166 11.5068 62.0537 11.7412 62.4834 12.2002C62.8643 12.7178 62.9814 13.2939 62.835 13.9287C62.6982 14.5635 62.4492 15.1201 62.0879 15.5986C61.7363 16.0869 61.3066 16.4873 60.7988 16.7998C60.291 17.1123 59.7295 17.293 59.1143 17.3418ZM63.4209 12.1123C63.4502 11.8584 63.5771 11.7314 63.8018 11.7314C63.8896 11.7314 63.9727 11.7705 64.0508 11.8486C64.1387 11.917 64.1826 12.0049 64.1826 12.1123C64.0166 13.9971 64.4805 15.7158 65.5742 17.2686C65.6719 17.4736 65.623 17.6445 65.4277 17.7812C65.2227 17.8691 65.0518 17.8252 64.915 17.6494C63.7432 15.9795 63.2451 14.1338 63.4209 12.1123ZM68.4746 11.6289C68.6113 11.4336 68.7725 11.3945 68.958 11.5117C69.1533 11.6191 69.2119 11.79 69.1338 12.0244C68.5674 13.167 67.9375 14.2803 67.2441 15.3643C66.0332 17.2686 64.6514 19.041 63.0986 20.6816C61.5654 22.293 59.8906 23.748 58.0742 25.0469C57.8594 25.1348 57.6836 25.0859 57.5469 24.9004C57.459 24.6953 57.5078 24.5244 57.6934 24.3877C58.6895 23.6846 59.6416 22.9229 60.5498 22.1025C62.1807 20.6475 63.6602 19.0459 64.9883 17.2979C66.3262 15.5205 67.4883 13.6309 68.4746 11.6289ZM83.6064 21.4873C83.499 21.751 83.3037 21.8584 83.0205 21.8096C82.7471 21.7021 82.6348 21.5068 82.6836 21.2236C83.25 19.7295 83.8408 18.2402 84.4561 16.7559C86.6631 11.4141 89.2363 6.25781 92.1758 1.28711C92.3711 1.05273 92.5859 1.00391 92.8203 1.14062C93.0645 1.27734 93.123 1.4873 92.9961 1.77051C92.1758 3.14746 91.3848 4.53906 90.623 5.94531C87.9375 10.9648 85.5986 16.1455 83.6064 21.4873ZM83.6064 21.4287C83.665 21.7314 83.5576 21.9219 83.2842 22C83.0205 22.0684 82.8203 21.9658 82.6836 21.6924C82.1953 20.2373 81.7266 18.7822 81.2773 17.3271C79.666 12.1514 78.3818 6.89258 77.4248 1.55078C77.3857 1.26758 77.498 1.07227 77.7617 0.964844C78.0449 0.916016 78.2402 1.02832 78.3477 1.30176C78.6113 2.80566 78.9043 4.30469 79.2266 5.79883C80.3887 11.0918 81.8486 16.3018 83.6064 21.4287ZM90.7842 11.6582C90.8623 11.4531 91.0088 11.3701 91.2236 11.4092C91.4287 11.4873 91.5117 11.6338 91.4727 11.8486C91.1113 13.7334 90.6768 15.6035 90.1689 17.459C90.0811 17.6738 89.9346 17.7568 89.7295 17.708C89.5342 17.6494 89.4512 17.5029 89.4805 17.2686C89.9785 15.4131 90.4131 13.543 90.7842 11.6582ZM90.8281 10.6475C90.8281 10.5791 90.8428 10.5205 90.8721 10.4717C90.8916 10.4424 90.9111 10.418 90.9307 10.3984C90.9795 10.3496 91.0332 10.3154 91.0918 10.2959C91.1211 10.2959 91.1553 10.2959 91.1943 10.2959C91.2432 10.2861 91.2871 10.2959 91.3262 10.3252C91.3652 10.335 91.4043 10.3594 91.4434 10.3984C91.4727 10.4277 91.4971 10.4668 91.5166 10.5156C91.5361 10.5547 91.5459 10.5986 91.5459 10.6475C91.5459 10.667 91.5459 10.6865 91.5459 10.7061C91.5459 10.7646 91.5312 10.8232 91.502 10.8818C91.4824 10.9111 91.4629 10.9355 91.4434 10.9551C91.3945 11.0039 91.3408 11.0332 91.2822 11.043C91.2529 11.0527 91.2236 11.0576 91.1943 11.0576C91.1357 11.0674 91.0869 11.0576 91.0479 11.0283C91.0088 11.0186 90.9697 10.9941 90.9307 10.9551C90.9014 10.9258 90.877 10.8867 90.8574 10.8379C90.8379 10.7988 90.8281 10.7549 90.8281 10.7061C90.8281 10.6865 90.8281 10.667 90.8281 10.6475ZM93.2158 13.1523C93.4014 13.0059 93.5869 13.0059 93.7725 13.1523C93.9189 13.3379 93.9189 13.5234 93.7725 13.709C93.4014 14.1484 93.1621 14.6514 93.0547 15.2178C93.0059 15.4619 92.9912 15.7207 93.0107 15.9941C93.04 16.2676 93.1572 16.4922 93.3623 16.668C93.7627 16.9609 94.2168 17.0732 94.7246 17.0049C95.2324 16.9268 95.6816 16.7559 96.0723 16.4922C96.9219 15.8965 97.4688 15.0957 97.7129 14.0898C97.8203 13.6309 97.7324 13.2158 97.4492 12.8447C97.1465 12.5322 96.7754 12.3906 96.3359 12.4199C95.8281 12.5078 95.4277 12.7715 95.1348 13.2109C94.8418 13.6504 94.6123 14.0947 94.4463 14.5439C94.3486 14.7588 94.1875 14.8467 93.9629 14.8076C93.7383 14.7197 93.6455 14.5635 93.6846 14.3389C93.8213 13.9775 93.9775 13.626 94.1533 13.2842C94.3389 12.9424 94.5684 12.6348 94.8418 12.3613C95.3887 11.8242 96.0381 11.5898 96.79 11.6582C97.4053 11.7656 97.8838 12.0781 98.2256 12.5957C98.5576 13.1914 98.6211 13.8213 98.416 14.4854C98.0254 15.7842 97.2393 16.7607 96.0576 17.415C95.4424 17.7178 94.7979 17.835 94.124 17.7666C93.8018 17.7275 93.4941 17.6348 93.2012 17.4883C92.9082 17.3418 92.6689 17.127 92.4834 16.8438C92.3174 16.5508 92.2295 16.2334 92.2197 15.8916C92.21 15.54 92.2441 15.2031 92.3223 14.8809C92.4883 14.2363 92.7861 13.6602 93.2158 13.1523ZM102.137 1.60938C102.205 1.375 102.352 1.27246 102.576 1.30176C102.811 1.32129 102.928 1.45312 102.928 1.69727C102.762 2.86914 102.581 4.04102 102.386 5.21289C101.673 9.42188 100.687 13.5771 99.4268 17.6787C99.3096 17.874 99.1338 17.9424 98.8994 17.8838C98.6943 17.7764 98.626 17.6152 98.6943 17.4004C99.0459 16.2773 99.3682 15.1494 99.6611 14.0166C100.745 9.9248 101.57 5.78906 102.137 1.60938ZM101.858 16.3018C101.751 16.3115 101.658 16.2725 101.58 16.1846C101.502 16.0967 101.463 16.0039 101.463 15.9062C101.463 15.6816 101.595 15.5547 101.858 15.5254C102.581 15.457 103.309 15.3496 104.041 15.2031C104.773 15.0566 105.472 14.8174 106.136 14.4854C106.722 14.2119 107.225 13.8311 107.645 13.3428C107.83 13.1377 107.918 12.9082 107.908 12.6543C107.879 12.5371 107.801 12.459 107.674 12.4199C107.557 12.3711 107.444 12.3418 107.337 12.332C106.653 12.2637 106.023 12.3906 105.447 12.7129C104.871 13.0352 104.432 13.499 104.129 14.1045C103.855 14.6807 103.768 15.2812 103.865 15.9062C103.914 16.1992 104.056 16.4287 104.29 16.5947C104.505 16.7314 104.739 16.8145 104.993 16.8438C105.589 16.8828 106.15 16.7607 106.678 16.4775C107.205 16.2236 107.688 15.9062 108.128 15.5254C108.313 15.3691 108.499 15.3691 108.685 15.5254C108.831 15.7109 108.831 15.8965 108.685 16.082C108.089 16.6191 107.386 17.0537 106.575 17.3857C105.774 17.7178 104.979 17.7324 104.188 17.4297C103.66 17.1758 103.318 16.7998 103.162 16.3018C103.016 15.8037 103.001 15.2764 103.118 14.7197C103.235 14.1631 103.431 13.6748 103.704 13.2549C104.183 12.5518 104.822 12.0537 105.623 11.7607C105.994 11.624 106.395 11.5459 106.824 11.5264C107.264 11.4971 107.669 11.5605 108.04 11.7168C108.44 11.9121 108.66 12.2344 108.699 12.6836C108.689 13.1035 108.548 13.4795 108.274 13.8115C107.767 14.4072 107.156 14.8711 106.443 15.2031C105.73 15.5449 104.983 15.7939 104.202 15.9502C103.421 16.1064 102.64 16.2236 101.858 16.3018ZM112.786 10.3984C112.942 10.1738 113.123 10.125 113.328 10.252C113.543 10.3691 113.606 10.5547 113.519 10.8086C112.806 12.2344 112.288 13.7236 111.966 15.2764C111.897 15.5107 111.849 15.8037 111.819 16.1553C111.8 16.5068 111.946 16.7168 112.259 16.7852C112.425 16.7852 112.591 16.7461 112.757 16.668C112.923 16.5801 113.074 16.4922 113.211 16.4043C113.543 16.2188 113.851 15.9941 114.134 15.7305C114.358 15.584 114.554 15.5986 114.72 15.7744C114.896 15.9404 114.896 16.126 114.72 16.3311C114.417 16.6045 114.085 16.8535 113.724 17.0781C113.392 17.293 113.04 17.4541 112.669 17.5615C111.897 17.6982 111.36 17.4053 111.058 16.6826C110.97 16.3115 110.97 15.9453 111.058 15.584C111.116 15.2227 111.189 14.8711 111.277 14.5293C111.629 13.0938 112.132 11.7168 112.786 10.3984ZM110.12 12.6836C109.837 12.6445 109.695 12.5029 109.695 12.2588C109.695 12.1514 109.734 12.0537 109.812 11.9658C109.9 11.8779 110.003 11.8389 110.12 11.8486C111.624 11.9756 113.133 11.9902 114.646 11.8926C114.764 11.8926 114.861 11.9365 114.939 12.0244C115.027 12.1123 115.071 12.21 115.071 12.3174C115.071 12.5518 114.93 12.6885 114.646 12.7275C113.133 12.8252 111.624 12.8105 110.12 12.6836ZM119.114 10.3984C119.271 10.1738 119.451 10.125 119.656 10.252C119.871 10.3691 119.935 10.5547 119.847 10.8086C119.134 12.2344 118.616 13.7236 118.294 15.2764C118.226 15.5107 118.177 15.8037 118.147 16.1553C118.128 16.5068 118.274 16.7168 118.587 16.7852C118.753 16.7852 118.919 16.7461 119.085 16.668C119.251 16.5801 119.402 16.4922 119.539 16.4043C119.871 16.2188 120.179 15.9941 120.462 15.7305C120.687 15.584 120.882 15.5986 121.048 15.7744C121.224 15.9404 121.224 16.126 121.048 16.3311C120.745 16.6045 120.413 16.8535 120.052 17.0781C119.72 17.293 119.368 17.4541 118.997 17.5615C118.226 17.6982 117.688 17.4053 117.386 16.6826C117.298 16.3115 117.298 15.9453 117.386 15.584C117.444 15.2227 117.518 14.8711 117.605 14.5293C117.957 13.0938 118.46 11.7168 119.114 10.3984ZM116.448 12.6836C116.165 12.6445 116.023 12.5029 116.023 12.2588C116.023 12.1514 116.062 12.0537 116.141 11.9658C116.229 11.8779 116.331 11.8389 116.448 11.8486C117.952 11.9756 119.461 11.9902 120.975 11.8926C121.092 11.8926 121.189 11.9365 121.268 12.0244C121.355 12.1123 121.399 12.21 121.399 12.3174C121.399 12.5518 121.258 12.6885 120.975 12.7275C119.461 12.8252 117.952 12.8105 116.448 12.6836ZM127.698 15.335C127.532 15.5303 127.342 15.5742 127.127 15.4668C126.912 15.3496 126.858 15.1738 126.966 14.9395C127.122 14.7051 127.273 14.4658 127.42 14.2217C127.566 13.9678 127.605 13.6992 127.537 13.416C127.352 12.918 126.976 12.625 126.409 12.5371C125.853 12.4688 125.315 12.5713 124.798 12.8447C124.29 13.1182 123.875 13.4551 123.553 13.8555C123.26 14.2168 123.045 14.6318 122.908 15.1006C122.781 15.5693 122.845 16.0137 123.099 16.4336C123.401 16.7949 123.807 16.9561 124.314 16.917C124.812 16.8682 125.247 16.6826 125.618 16.3604C125.989 16.0283 126.321 15.667 126.614 15.2764C126.917 14.8857 127.259 14.5244 127.64 14.1924C127.874 14.0557 128.074 14.0654 128.24 14.2217C128.416 14.3682 128.416 14.5439 128.24 14.749C128.172 14.876 128.123 15.0518 128.094 15.2764C128.035 15.5303 127.991 15.7891 127.962 16.0527C127.913 16.5312 128.104 16.9219 128.533 17.2246C128.699 17.4004 128.699 17.5811 128.533 17.7666C128.338 17.9131 128.138 17.9131 127.933 17.7666C127.356 17.3174 127.088 16.7461 127.127 16.0527C127.156 15.7012 127.21 15.3496 127.288 14.998C127.317 14.6953 127.435 14.4268 127.64 14.1924C127.845 14.3779 128.045 14.5635 128.24 14.749C127.742 15.1885 127.293 15.6768 126.893 16.2139C126.492 16.7412 125.97 17.1562 125.325 17.459C124.681 17.7324 124.026 17.7666 123.362 17.5615C122.698 17.3076 122.273 16.8584 122.088 16.2139C121.951 15.5986 122.01 14.998 122.264 14.4121C122.518 13.8164 122.889 13.3037 123.377 12.874C123.895 12.4053 124.515 12.0684 125.237 11.8633C125.97 11.6484 126.673 11.7021 127.347 12.0244C127.972 12.376 128.328 12.8838 128.416 13.5479C128.436 13.8799 128.367 14.1924 128.211 14.4854C128.055 14.7783 127.884 15.0615 127.698 15.335ZM149.231 15.4668C149.495 15.5645 149.593 15.7354 149.524 15.9795C149.456 16.2236 149.28 16.3311 148.997 16.3018C147.962 16.0771 146.946 15.7891 145.95 15.4375C145.364 15.252 144.827 14.9785 144.339 14.6172C144.026 14.3633 143.895 14.0459 143.943 13.665C144.051 13.3428 144.261 13.1035 144.573 12.9473C144.983 12.7227 145.418 12.5566 145.877 12.4492C146.346 12.3418 146.81 12.2588 147.269 12.2002C148.489 12.0049 149.715 11.8828 150.945 11.834C151.951 11.7656 152.962 11.7656 153.978 11.834C154.261 11.873 154.402 12.0195 154.402 12.2734C154.402 12.3809 154.358 12.4834 154.271 12.5811C154.192 12.6689 154.095 12.7129 153.978 12.7129C152.884 12.6348 151.795 12.6348 150.711 12.7129C150.125 12.752 149.539 12.8008 148.953 12.8594C148.67 12.8887 148.382 12.918 148.089 12.9473C148.069 12.957 148.045 12.9668 148.016 12.9766C147.986 12.9766 147.991 12.9717 148.03 12.9619C148.001 12.9619 147.967 12.9668 147.928 12.9766C147.859 12.9863 147.791 12.9961 147.723 13.0059C147.596 13.0254 147.469 13.0449 147.342 13.0645C146.863 13.1426 146.385 13.2451 145.906 13.3721C145.721 13.4209 145.535 13.4795 145.35 13.5479C145.301 13.5674 145.252 13.5869 145.203 13.6064C145.271 13.5771 145.291 13.5674 145.262 13.5771C145.232 13.5869 145.208 13.5967 145.188 13.6064C145.12 13.6455 145.052 13.6797 144.983 13.709C144.954 13.7285 144.925 13.7529 144.896 13.7822C144.876 13.792 144.861 13.7969 144.852 13.7969C144.832 13.8066 144.837 13.8018 144.866 13.7822C144.896 13.7529 144.9 13.7529 144.881 13.7822C144.852 13.8213 144.817 13.8555 144.778 13.8848C144.808 13.8359 144.812 13.8311 144.793 13.8701C144.773 13.8994 144.759 13.9189 144.749 13.9287C144.749 13.9385 144.764 13.9092 144.793 13.8408C144.793 13.8604 144.788 13.8799 144.778 13.8994C144.778 13.9092 144.778 13.8945 144.778 13.8555C144.788 13.8164 144.793 13.8164 144.793 13.8555C144.793 13.8848 144.788 13.8799 144.778 13.8408C144.769 13.792 144.773 13.7871 144.793 13.8262C144.803 13.8652 144.798 13.8701 144.778 13.8408C144.759 13.8018 144.759 13.7871 144.778 13.7969C144.788 13.8164 144.798 13.8359 144.808 13.8555C144.827 13.8945 144.822 13.8994 144.793 13.8701C144.773 13.8408 144.778 13.8359 144.808 13.8555C144.866 13.9043 144.92 13.9531 144.969 14.002C144.979 14.0215 144.969 14.0166 144.939 13.9873C144.959 13.9971 144.979 14.0068 144.998 14.0166C145.027 14.0459 145.062 14.0703 145.101 14.0898C145.296 14.2168 145.501 14.3242 145.716 14.4121C145.745 14.4219 145.765 14.4316 145.774 14.4414C145.804 14.4512 145.833 14.4609 145.862 14.4707C145.94 14.5 146.019 14.5293 146.097 14.5586C146.243 14.6172 146.39 14.6709 146.536 14.7197C147.425 15.0127 148.323 15.2617 149.231 15.4668ZM156.219 0.642578C156.346 0.632812 156.448 0.676758 156.526 0.774414C156.614 0.87207 156.658 0.974609 156.658 1.08203C156.658 1.33594 156.512 1.48242 156.219 1.52148C155.867 1.56055 155.521 1.60449 155.179 1.65332C152.103 2.07324 149.168 2.94727 146.375 4.27539C145.027 4.93945 143.777 5.75488 142.625 6.72168C141.473 7.68848 140.496 8.81641 139.695 10.1055C138.865 11.4434 138.313 12.8887 138.04 14.4414C137.991 14.7148 137.962 15.0176 137.952 15.3496C137.952 15.4961 137.957 15.6475 137.967 15.8037C137.967 15.8721 137.972 15.9453 137.981 16.0234C137.981 16.043 137.981 16.0771 137.981 16.126C137.991 16.1748 137.996 16.1846 137.996 16.1553C138.035 16.4287 138.094 16.6973 138.172 16.9609C138.221 17.1074 138.265 17.2246 138.304 17.3125C138.304 17.332 138.323 17.376 138.362 17.4443C138.392 17.5029 138.421 17.5615 138.45 17.6201C138.675 18.0596 138.963 18.4453 139.314 18.7773C139.422 18.875 139.529 18.9678 139.637 19.0557C139.686 19.1045 139.734 19.1484 139.783 19.1875C139.754 19.168 139.754 19.1729 139.783 19.2021C139.822 19.2217 139.852 19.2363 139.871 19.2461C140.086 19.4023 140.311 19.5488 140.545 19.6855C140.789 19.8223 141.043 19.9492 141.307 20.0664C141.512 20.1543 141.756 20.2471 142.039 20.3447C142.596 20.54 143.162 20.6963 143.738 20.8135C144.324 20.9307 144.905 21.0186 145.481 21.0771C146.077 21.126 146.683 21.1553 147.298 21.165C147.884 21.1748 148.47 21.1602 149.056 21.1211C149.339 21.1016 149.617 21.0771 149.891 21.0479C150.027 21.0283 150.159 21.0088 150.286 20.9893C150.296 20.9893 150.315 20.9893 150.345 20.9893C150.374 20.9893 150.374 20.9893 150.345 20.9893C150.315 20.9893 150.315 20.9893 150.345 20.9893C150.374 20.9795 150.394 20.9746 150.403 20.9746C150.462 20.9648 150.521 20.96 150.579 20.96C150.491 21.0186 150.408 21.082 150.33 21.1504C150.369 21.0918 150.408 21.0283 150.447 20.96C150.477 20.9209 150.506 20.8818 150.535 20.8428C150.545 20.8525 150.55 20.8184 150.55 20.7402C150.579 20.5254 150.628 20.3154 150.696 20.1104C150.745 19.8955 150.799 19.6807 150.857 19.4658C151.092 18.6357 151.355 17.8105 151.648 16.9902C152.254 15.3691 152.889 13.7578 153.553 12.1562C153.65 11.9121 153.826 11.8096 154.08 11.8486C154.334 11.9463 154.437 12.127 154.388 12.3906C154.153 12.9863 153.914 13.5771 153.67 14.1631C153.182 15.3545 152.728 16.5557 152.308 17.7666C152.093 18.3818 151.897 19.002 151.722 19.627C151.634 19.9688 151.546 20.3105 151.458 20.6523C151.429 20.8867 151.365 21.1064 151.268 21.3115C151.18 21.4873 151.062 21.6338 150.916 21.751C150.74 21.8193 150.555 21.8535 150.359 21.8535C150.047 21.9023 149.729 21.9365 149.407 21.9561C148.714 22.0146 148.025 22.0439 147.342 22.0439C145.857 22.0439 144.393 21.873 142.947 21.5312C141.561 21.2188 140.301 20.6426 139.168 19.8027C138.104 18.9629 137.439 17.8789 137.176 16.5508C137.039 15.6914 137.054 14.8369 137.22 13.9873C137.396 13.1377 137.654 12.3174 137.996 11.5264C138.738 9.78809 139.764 8.26953 141.072 6.9707C142.391 5.66211 143.885 4.57813 145.555 3.71875C147.215 2.85937 148.943 2.18555 150.74 1.69727C152.547 1.20898 154.373 0.857422 156.219 0.642578ZM155.091 13.1523C155.276 13.0059 155.462 13.0059 155.647 13.1523C155.794 13.3379 155.794 13.5234 155.647 13.709C155.276 14.1484 155.037 14.6514 154.93 15.2178C154.881 15.4619 154.866 15.7207 154.886 15.9941C154.915 16.2676 155.032 16.4922 155.237 16.668C155.638 16.9609 156.092 17.0732 156.6 17.0049C157.107 16.9268 157.557 16.7559 157.947 16.4922C158.797 15.8965 159.344 15.0957 159.588 14.0898C159.695 13.6309 159.607 13.2158 159.324 12.8447C159.021 12.5322 158.65 12.3906 158.211 12.4199C157.703 12.5078 157.303 12.7715 157.01 13.2109C156.717 13.6504 156.487 14.0947 156.321 14.5439C156.224 14.7588 156.062 14.8467 155.838 14.8076C155.613 14.7197 155.521 14.5635 155.56 14.3389C155.696 13.9775 155.853 13.626 156.028 13.2842C156.214 12.9424 156.443 12.6348 156.717 12.3613C157.264 11.8242 157.913 11.5898 158.665 11.6582C159.28 11.7656 159.759 12.0781 160.101 12.5957C160.433 13.1914 160.496 13.8213 160.291 14.4854C159.9 15.7842 159.114 16.7607 157.933 17.415C157.317 17.7178 156.673 17.835 155.999 17.7666C155.677 17.7275 155.369 17.6348 155.076 17.4883C154.783 17.3418 154.544 17.127 154.358 16.8438C154.192 16.5508 154.104 16.2334 154.095 15.8916C154.085 15.54 154.119 15.2031 154.197 14.8809C154.363 14.2363 154.661 13.6602 155.091 13.1523ZM164.642 1.93164C164.72 1.70703 164.876 1.59961 165.11 1.60938C165.345 1.67773 165.452 1.8291 165.433 2.06348C165.081 3.17676 164.734 4.29492 164.393 5.41797C163.211 9.38281 162.142 13.3721 161.185 17.3857C161.097 17.6201 160.936 17.7178 160.701 17.6787C160.477 17.6396 160.379 17.498 160.408 17.2539C160.672 16.1113 160.95 14.9736 161.243 13.8408C162.269 9.83691 163.401 5.86719 164.642 1.93164ZM163.323 17.3418C163.206 17.3516 163.108 17.3174 163.03 17.2393C162.952 17.1514 162.913 17.0586 162.913 16.9609C162.913 16.7461 163.05 16.6191 163.323 16.5801C163.851 16.5312 164.324 16.3555 164.744 16.0527C165.174 15.75 165.521 15.3838 165.784 14.9541C166.019 14.6025 166.185 14.1875 166.282 13.709C166.39 13.2207 166.258 12.8252 165.887 12.5225C165.486 12.2686 165.052 12.1807 164.583 12.2588C164.124 12.3369 163.709 12.5078 163.338 12.7715C162.586 13.2988 162.044 13.9824 161.712 14.8223C161.644 15.0078 161.6 15.1836 161.58 15.3496C161.561 15.5254 161.57 15.6816 161.609 15.8184C161.648 15.9551 161.717 16.0723 161.814 16.1699C161.941 16.2676 162.093 16.3408 162.269 16.3896C162.513 16.4873 162.601 16.6436 162.532 16.8584C162.474 17.0732 162.317 17.1611 162.063 17.1221C161.438 16.9658 161.028 16.5947 160.833 16.0088C160.716 15.4619 160.779 14.9297 161.023 14.4121C161.502 13.3281 162.264 12.4834 163.309 11.8779C163.846 11.6045 164.437 11.4775 165.081 11.4971C165.726 11.5068 166.263 11.7412 166.692 12.2002C167.073 12.7178 167.19 13.2939 167.044 13.9287C166.907 14.5635 166.658 15.1201 166.297 15.5986C165.945 16.0869 165.516 16.4873 165.008 16.7998C164.5 17.1123 163.938 17.293 163.323 17.3418ZM168.421 13.1523C168.606 13.0059 168.792 13.0059 168.978 13.1523C169.124 13.3379 169.124 13.5234 168.978 13.709C168.606 14.1484 168.367 14.6514 168.26 15.2178C168.211 15.4619 168.196 15.7207 168.216 15.9941C168.245 16.2676 168.362 16.4922 168.567 16.668C168.968 16.9609 169.422 17.0732 169.93 17.0049C170.438 16.9268 170.887 16.7559 171.277 16.4922C172.127 15.8965 172.674 15.0957 172.918 14.0898C173.025 13.6309 172.938 13.2158 172.654 12.8447C172.352 12.5322 171.98 12.3906 171.541 12.4199C171.033 12.5078 170.633 12.7715 170.34 13.2109C170.047 13.6504 169.817 14.0947 169.651 14.5439C169.554 14.7588 169.393 14.8467 169.168 14.8076C168.943 14.7197 168.851 14.5635 168.89 14.3389C169.026 13.9775 169.183 13.626 169.358 13.2842C169.544 12.9424 169.773 12.6348 170.047 12.3613C170.594 11.8242 171.243 11.5898 171.995 11.6582C172.61 11.7656 173.089 12.0781 173.431 12.5957C173.763 13.1914 173.826 13.8213 173.621 14.4854C173.23 15.7842 172.444 16.7607 171.263 17.415C170.647 17.7178 170.003 17.835 169.329 17.7666C169.007 17.7275 168.699 17.6348 168.406 17.4883C168.113 17.3418 167.874 17.127 167.688 16.8438C167.522 16.5508 167.435 16.2334 167.425 15.8916C167.415 15.54 167.449 15.2031 167.527 14.8809C167.693 14.2363 167.991 13.6602 168.421 13.1523ZM175.145 13.2256C174.93 13.2549 174.783 13.1719 174.705 12.9766C174.676 12.7617 174.759 12.6152 174.954 12.5371C175.667 12.3809 176.38 12.21 177.093 12.0244C177.942 11.8193 178.802 11.6582 179.671 11.541C179.837 11.5117 179.969 11.5654 180.066 11.7021C180.145 11.8584 180.125 12.0049 180.008 12.1416C179.021 13.001 178.094 13.9189 177.225 14.8955C176.424 15.7939 175.579 16.6484 174.69 17.459C174.72 17.3418 174.749 17.2295 174.778 17.1221C174.827 17.3174 174.773 17.4736 174.617 17.5908C174.441 17.6689 174.285 17.6445 174.148 17.5176C174.021 17.3809 173.997 17.2295 174.075 17.0635C174.183 16.917 174.324 16.8486 174.5 16.8584C175.076 16.8193 175.647 16.7461 176.214 16.6387C177.405 16.3457 178.597 16.0771 179.788 15.833C180.003 15.7939 180.149 15.877 180.228 16.082C180.267 16.2969 180.184 16.4385 179.979 16.5068C179.041 16.6924 178.108 16.9072 177.181 17.1514C176.751 17.249 176.316 17.3369 175.877 17.415C175.643 17.4541 175.408 17.4883 175.174 17.5176C175.057 17.5273 174.939 17.5371 174.822 17.5469C174.754 17.5469 174.69 17.5518 174.632 17.5615C174.603 17.5615 174.568 17.5664 174.529 17.5762C174.49 17.5762 174.505 17.5615 174.573 17.5322C174.612 17.4932 174.651 17.4492 174.69 17.4004C174.69 17.4102 174.69 17.415 174.69 17.415C174.7 17.3271 174.71 17.2344 174.72 17.1367C174.71 17.1172 174.705 17.0977 174.705 17.0781C174.656 17.0391 174.612 17 174.573 16.9609C174.554 16.9512 174.534 16.9414 174.515 16.9316C174.456 16.9316 174.393 16.9316 174.324 16.9316C174.334 16.9316 174.339 16.9316 174.339 16.9316C174.29 16.9609 174.241 16.9902 174.192 17.0195C174.163 17.0684 174.134 17.1172 174.104 17.166C174.104 17.166 174.104 17.1611 174.104 17.1514C174.104 17.21 174.104 17.2734 174.104 17.3418C174.075 17.127 174.148 16.9609 174.324 16.8438C174.441 16.7363 174.559 16.6289 174.676 16.5215C174.9 16.3066 175.12 16.0869 175.335 15.8623C175.774 15.4131 176.199 14.959 176.609 14.5C177.518 13.4844 178.484 12.5273 179.51 11.6289C179.627 11.834 179.744 12.0342 179.861 12.2295C178.992 12.3467 178.133 12.5078 177.283 12.7129C176.57 12.8984 175.857 13.0693 175.145 13.2256ZM181.985 13.1523C182.171 13.0059 182.356 13.0059 182.542 13.1523C182.688 13.3379 182.688 13.5234 182.542 13.709C182.171 14.1484 181.932 14.6514 181.824 15.2178C181.775 15.4619 181.761 15.7207 181.78 15.9941C181.81 16.2676 181.927 16.4922 182.132 16.668C182.532 16.9609 182.986 17.0732 183.494 17.0049C184.002 16.9268 184.451 16.7559 184.842 16.4922C185.691 15.8965 186.238 15.0957 186.482 14.0898C186.59 13.6309 186.502 13.2158 186.219 12.8447C185.916 12.5322 185.545 12.3906 185.105 12.4199C184.598 12.5078 184.197 12.7715 183.904 13.2109C183.611 13.6504 183.382 14.0947 183.216 14.5439C183.118 14.7588 182.957 14.8467 182.732 14.8076C182.508 14.7197 182.415 14.5635 182.454 14.3389C182.591 13.9775 182.747 13.626 182.923 13.2842C183.108 12.9424 183.338 12.6348 183.611 12.3613C184.158 11.8242 184.808 11.5898 185.56 11.6582C186.175 11.7656 186.653 12.0781 186.995 12.5957C187.327 13.1914 187.391 13.8213 187.186 14.4854C186.795 15.7842 186.009 16.7607 184.827 17.415C184.212 17.7178 183.567 17.835 182.894 17.7666C182.571 17.7275 182.264 17.6348 181.971 17.4883C181.678 17.3418 181.438 17.127 181.253 16.8438C181.087 16.5508 180.999 16.2334 180.989 15.8916C180.979 15.54 181.014 15.2031 181.092 14.8809C181.258 14.2363 181.556 13.6602 181.985 13.1523ZM188.108 11.9951C188.079 11.7998 188.157 11.668 188.343 11.5996C188.538 11.5605 188.67 11.6338 188.738 11.8193C188.895 12.7178 189.031 13.6211 189.148 14.5293C189.266 15.4277 189.432 16.3164 189.646 17.1953C189.49 17.127 189.334 17.0635 189.178 17.0049C189.314 16.8682 189.412 16.707 189.471 16.5215C189.598 16.2871 189.725 16.0576 189.852 15.833C190.105 15.3545 190.369 14.8809 190.643 14.4121C191.199 13.4453 191.824 12.5322 192.518 11.6729C192.674 11.5459 192.83 11.5459 192.986 11.6729C193.104 11.8193 193.104 11.9707 192.986 12.127C192.283 12.9961 191.663 13.9189 191.126 14.8955C190.853 15.374 190.584 15.8525 190.32 16.3311C190.193 16.5557 190.076 16.7803 189.969 17.0049C189.861 17.2295 189.705 17.415 189.5 17.5615C189.275 17.6592 189.114 17.5957 189.017 17.3711C188.802 16.4824 188.636 15.5889 188.519 14.6904C188.401 13.792 188.265 12.8936 188.108 11.9951ZM197.952 15.335C197.786 15.5303 197.596 15.5742 197.381 15.4668C197.166 15.3496 197.112 15.1738 197.22 14.9395C197.376 14.7051 197.527 14.4658 197.674 14.2217C197.82 13.9678 197.859 13.6992 197.791 13.416C197.605 12.918 197.229 12.625 196.663 12.5371C196.106 12.4688 195.569 12.5713 195.052 12.8447C194.544 13.1182 194.129 13.4551 193.807 13.8555C193.514 14.2168 193.299 14.6318 193.162 15.1006C193.035 15.5693 193.099 16.0137 193.353 16.4336C193.655 16.7949 194.061 16.9561 194.568 16.917C195.066 16.8682 195.501 16.6826 195.872 16.3604C196.243 16.0283 196.575 15.667 196.868 15.2764C197.171 14.8857 197.513 14.5244 197.894 14.1924C198.128 14.0557 198.328 14.0654 198.494 14.2217C198.67 14.3682 198.67 14.5439 198.494 14.749C198.426 14.876 198.377 15.0518 198.348 15.2764C198.289 15.5303 198.245 15.7891 198.216 16.0527C198.167 16.5312 198.357 16.9219 198.787 17.2246C198.953 17.4004 198.953 17.5811 198.787 17.7666C198.592 17.9131 198.392 17.9131 198.187 17.7666C197.61 17.3174 197.342 16.7461 197.381 16.0527C197.41 15.7012 197.464 15.3496 197.542 14.998C197.571 14.6953 197.688 14.4268 197.894 14.1924C198.099 14.3779 198.299 14.5635 198.494 14.749C197.996 15.1885 197.547 15.6768 197.146 16.2139C196.746 16.7412 196.224 17.1562 195.579 17.459C194.935 17.7324 194.28 17.7666 193.616 17.5615C192.952 17.3076 192.527 16.8584 192.342 16.2139C192.205 15.5986 192.264 14.998 192.518 14.4121C192.771 13.8164 193.143 13.3037 193.631 12.874C194.148 12.4053 194.769 12.0684 195.491 11.8633C196.224 11.6484 196.927 11.7021 197.601 12.0244C198.226 12.376 198.582 12.8838 198.67 13.5479C198.689 13.8799 198.621 14.1924 198.465 14.4854C198.309 14.7783 198.138 15.0615 197.952 15.335Z" fill="#665070"/>
</svg>
